# xmcd
#
# Track frame offsets: 
#        150
#        19145
#        44712
#        63995
#        85087
#        105945
#        127957
#        147820
#
# Disc length: 2252 seconds
#
# Revision: 3
# Processed by: cddbd v1.5.2PL0 Copyright (c) Steve Scherf et al.
# Submitted via: ExactAudioCopy v0.99pb3
#
DISCID=6208ca08
DTITLE=Ray Barretto - Giant Force
DYEAR=1979
DGENRE=Salsa
TTITLE0=Tu propio dolor
TTITLE1=Arallue
TTITLE2=Aguardiente de caña
TTITLE3=Los mareados
TTITLE4=Pura novela
TTITLE5=Guarapo y melcocha
TTITLE6=Tus mentiras
TTITLE7=Fuerza gigante
EXTD=
EXTT0=
EXTT1=
EXTT2=
EXTT3=
EXTT4=
EXTT5=
EXTT6=
EXTT7=
PLAYORDER=
